#!OML:ASF F:\VICON\USERDATA\INSTALL\rory3\rory3.ASF
:FULLY-SPECIFIED
:DEGREES
117
root 0.041638650355854456 18.02542774202227 33.77136641968154 1.525381339282624 3.557477688477462 -3.6738850672355703
lfemur -30.499292208625775 -0.012652984137649315 -19.38813602800931
ltibia 25.426753882931887
lfoot -3.2555513513558774 -5.670077947084637
ltoes -33.2631482077432
rfemur -1.8027301244209966 3.020026207635942 32.02278684851661
rtibia 68.60280430016878
rfoot 7.747739964141231 -23.905336320935103
rtoes 2.175200017993319
lowerback nan 0.3845038263401715 0.7463036287607324
upperback -0.8876972808010454 4.157843652356913 -0.4883225486916467
thorax -8.649086966826774 1.6728157588706842 -2.2962274640123432
lowerneck -21.530389476984087 -4.791763858000073 -1.9459980427267605
upperneck 11.055885130898801 -7.330704159203654 4.265816183119374
head 7.637286509488228 -2.812852609014798 0.7165768720775709
lclavicle -5.931103393058157e-14 -2.200013259398249e-14
lhumerus -63.01397620654629 -0.44051790327631757 91.390407749107
lradius 120.51203856804304
lwrist 30.44384432269469
lhand -22.832065136106113 -2.896324160787647
lfingers nan
lthumb 3.362658960852801 26.585915986657426
rclavicle -5.3145759507116834e-14 -1.7459434921217117e-14
rhumerus -44.51778865956823 17.32802732223358 -101.17222692343843
rradius 115.66028313889852
rwrist -9.57381815191647
rhand -18.956673971030362 nan
rfingers nan
rthumb 7.905941244591737 12.630596158677275
118
root 0.010196673597341 17.918543658022525 33.931173117193495 0.9582849983656829 4.241893322810319 -3.3388137102726487
lfemur -30.534291340554134 0.8092674596930851 -20.273844995696592
ltibia 27.430876898851945
lfoot -4.58948409345007 -7.990403021152749
ltoes -25.484155072791733
rfemur -2.960413587159824 1.69006102772089 31.53636399475365
rtibia 73.34392062819839
rfoot 7.149573306687503 -24.065683484034995
rtoes 23.42475043853914
lowerback nan 0.07769924491956193 0.35726720142327384
upperback -0.5302675069900608 3.654954354150706 -0.47102936846389487
thorax -8.559567489238392 1.4627340805197986 -1.9100111146627523
lowerneck -21.60956499227889 -4.649812277744515 -1.7843818031220715
upperneck 10.963013678658598 -7.081052622920351 4.279054209931173
head 7.615682041813993 -2.7311367097953076 0.7065009769500339
lclavicle 6.171234377444369e-15 -6.502992509024822e-15
lhumerus -61.697942213336546 -0.8664422834098602 91.67406527915999
lradius 121.12870285199709
lwrist 30.431258201957366
lhand -22.630657673456437 -2.698585331941201
lfingers nan
lthumb 3.591184604368502 26.723563893319326
rclavicle 1.2079903796058345e-14 -1.8913892965684526e-15
rhumerus -44.91523834854614 17.25701492454391 -101.55496264083317
rradius 114.33952247280239
rwrist -8.755203432736502
rhand -19.573111011564702 nan
rfingers nan
rthumb 7.324552322990959 12.232484803211445
119
root -0.018226145689003992 17.8112728713403 34.495493573681905 0.34584678726241336 4.60381153561704 -2.8893647655652543
lfemur -30.450075420810986 1.3878838676739098 -21.032517415359983
ltibia 29.771125698349355
lfoot -6.492869540036041 -9.758773982013306
ltoes -20.748219510628296
rfemur -4.137324375786026 0.4239683248797852 30.70815773388449
rtibia 77.95942646403684
rfoot 6.611387250945875 -23.81851873020876
rtoes 13.776721265380843
lowerback nan -0.08996668502618621 0.011454328113535306
upperback -0.18468246788680243 3.3118098827153246 -0.5700348009903815
thorax -8.704420002137585 1.314146564324401 -1.688066666244964
lowerneck -22.28356366099489 -4.611774060616949 -1.8221373534337104
upperneck 11.440623431613414 -6.976757000674003 4.3732731483246425
head 7.823393451017186 -2.6861357733046836 0.7284017083376024
lclavicle -9.582381853653242e-14 -2.0695525905382656e-15
lhumerus -60.30854811743355 -1.5445078260991618 91.93409933830642
lradius 121.84198957819508
lwrist 30.395282205401678
lhand -22.514521457051767 -2.4436237382568677
lfingers nan
lthumb 3.6903832834458585 27.077368138538645
rclavicle -8.971463552265725e-14 2.503909890627471e-15
rhumerus -45.411306896286256 16.72854896607558 -101.90413315868808
rradius 113.06166827034303
rwrist -8.432088845515144
rhand -19.61122269142719 nan
rfingers nan
rthumb 7.306027831126 11.48258742514513
120
root -0.04680491289231997 17.703250314004645 34.70444550586328 0.04991377974817279 4.986031998169565 -2.4467139163934126
lfemur -30.35436279804303 1.2028460326388097 -21.318028983343734
ltibia 32.51947553641553
lfoot -8.128648858057067 -9.929262927881641
ltoes -9.892863994686481
rfemur -5.699388844120461 -0.8730977527541284 29.63168267253969
rtibia 82.50964184555082
rfoot 5.87356408454143 -23.625841711681307
rtoes 15.048572961063819
lowerback nan -0.27479711541491103 -0.3682868714099683
upperback -0.020888642821268233 2.940080384423674 -0.6771408933884302
thorax -9.22153393866044 1.1458402701056982 -1.4477489304460838
lowerneck -22.595480269539223 -4.661949176003258 -1.939457781368344
upperneck 11.630717449780958 -7.057244939930182 4.545492518512966
head 7.936712965614363 -2.716722042536025 0.7806315687202867
lclavicle -4.682159349744497e-14 7.169642999504486e-16
lhumerus -58.78239039205775 -2.245252563852093 92.24334845931608
lradius 122.5482469895131
lwrist 30.507976191079877
lhand -22.74202526983135 -2.0685144074951722
lfingers nan
lthumb 3.4585710566515977 27.50256657901882
rclavicle -4.2071620788273106e-14 5.178065360112965e-15
rhumerus -46.25940092259693 15.811257341265708 -102.3515915021831
rradius 111.99127929542806
rwrist -7.619533654239772
rhand -19.65237939828548 nan
rfingers nan
rthumb 7.293042250545014 10.457268174201111
